<svg width="512" height="512" viewBox="0 0 512 512" fill="none" xmlns="http://www.w3.org/2000/svg">
<path d="M151.6 163.4C150.667 162.467 149.867 160.867 149.2 158.6C148.533 156.333 148.533 155.2 149.2 155.2C150.267 155.067 151.467 153.933 152.8 151.8C154.267 149.533 154.933 147.667 154.8 146.2C154.8 145.667 155 145.2 155.4 144.8C155.8 144.267 156.267 143.933 156.8 143.8C157.867 143.133 158.8 142.8 159.6 142.8C161.867 142.8 163.933 144.4 165.8 147.6C166.6 149.333 167 150.867 167 152.2C167 153.4 166.667 154.667 166 156C165.333 157.2 164.133 158.8 162.4 160.8C160.133 163.867 158 165.4 156 165.4C154.667 165.4 153.2 164.733 151.6 163.4ZM132.2 244.6C130.333 242.733 129.4 240.067 129.4 236.6C129.4 234.733 129.733 233.133 130.4 231.8C130.4 231.133 130.533 230.333 130.8 229.4C131.067 228.467 131.2 227.867 131.2 227.6C131.067 226.8 131.6 224.6 132.8 221C135.2 215.667 138.4 206.267 142.4 192.8C142.4 192.133 142.667 191.6 143.2 191.2C143.733 190.667 144.533 190.333 145.6 190.2C146.667 189.933 147.4 189.8 147.8 189.8C148.6 189.8 149.267 190.133 149.8 190.8C150.467 191.333 151.333 192.4 152.4 194C153.2 194.8 153.6 196 153.6 197.6C153.6 200.133 152.733 203.2 151 206.8C149.267 210.667 148.133 214 147.6 216.8C146 220.4 144.733 223.733 143.8 226.8C143.533 227.6 143.133 229.2 142.6 231.6C142.067 234 141.333 235.933 140.4 237.4C139.6 241.133 138.867 243.733 138.2 245.2C137.533 246.667 136.8 247.4 136 247.4C135.067 247.4 133.8 246.467 132.2 244.6ZM238.105 241.8C235.438 241.8 233.238 241.267 231.505 240.2C229.771 239 228.305 237.067 227.105 234.4C225.905 230.133 225.305 225.867 225.305 221.6C225.305 219.6 225.505 218.2 225.905 217.4C226.438 216.867 226.638 215.733 226.505 214C226.505 212.133 226.505 210.8 226.505 210C226.371 206.933 225.438 205.4 223.705 205.4C222.505 205.4 221.171 205.867 219.705 206.8C212.238 211.467 205.971 215.467 200.905 218.8C195.838 222.133 190.971 225.867 186.305 230C184.438 232.133 183.038 234 182.105 235.6C181.171 237.2 180.505 238.333 180.105 239C179.705 239.533 179.171 239.8 178.505 239.8C177.705 240.067 177.171 240.2 176.905 240.2C176.238 240.2 175.438 239.867 174.505 239.2C173.571 238.4 172.971 237.867 172.705 237.6C172.171 237.067 171.305 236.2 170.105 235C168.905 233.667 168.238 232.733 168.105 232.2C168.105 231.133 168.505 228.667 169.305 224.8C170.238 220.933 170.971 218.467 171.505 217.4C171.905 217.4 172.505 216.6 173.305 215C174.105 213.267 174.838 211.933 175.505 211C175.905 209 177.638 204.4 180.705 197.2C182.571 194 183.838 191.333 184.505 189.2C185.305 187.067 185.838 184.4 186.105 181.2V180.8C186.105 180.267 186.305 179.867 186.705 179.6C187.105 179.2 187.505 179 187.905 179C188.838 178.333 189.705 178 190.505 178C192.238 178 193.971 179.067 195.705 181.2C197.705 183.733 198.705 186.4 198.705 189.2C198.705 192.667 196.505 198.133 192.105 205.6C191.705 206.533 191.105 207.867 190.305 209.6C189.638 211.333 189.305 212.533 189.305 213.2L200.505 205.6C201.571 204.4 204.438 202.267 209.105 199.2C213.771 196.133 217.038 194.4 218.905 194C222.105 192.533 224.105 191.8 224.905 191.8C226.505 191.8 228.638 193 231.305 195.4C234.105 197.8 235.771 199.8 236.305 201.4C236.305 202.867 236.438 203.933 236.705 204.6C237.371 207.267 237.705 210.4 237.705 214C237.705 216.4 237.505 218.6 237.105 220.6C236.838 222.467 236.438 223.533 235.905 223.8C235.905 223.933 235.971 224.133 236.105 224.4C236.238 224.667 236.505 224.8 236.905 224.8V225.8C235.838 225.8 235.705 226.933 236.505 229.2C237.305 231.467 238.371 233.2 239.705 234.4C241.038 235.733 241.705 237.067 241.705 238.4C241.705 240 240.505 241.133 238.105 241.8ZM278.344 246.4C274.21 246.4 271.477 246.2 270.144 245.8C268.81 245.267 267.277 244.2 265.544 242.6C264.21 239.933 262.877 237.933 261.544 236.6C261.01 235.133 260.744 232.933 260.744 230C260.744 226.667 261.144 223.067 261.944 219.2C262.744 215.2 263.81 211.467 265.144 208C265.677 206.933 266.077 205.933 266.344 205C266.744 204.067 267.01 203.467 267.144 203.2C267.144 202.267 268.81 199.4 272.144 194.6C275.61 189.667 278.344 186.267 280.344 184.4C281.277 183.333 282.677 182.2 284.544 181C286.544 179.8 288.277 178.933 289.744 178.4C293.477 177.067 296.744 176.4 299.544 176.4C303.41 176.4 306.677 178.2 309.344 181.8C312.277 184.733 313.744 188 313.744 191.6C313.744 192.933 313.544 194.4 313.144 196C311.81 201.333 309.877 204 307.344 204C305.61 204 303.944 203 302.344 201C301.81 199.667 301.544 198.8 301.544 198.4C301.544 198 301.81 196.867 302.344 195C302.61 193.667 302.744 192.733 302.744 192.2C302.744 190.6 302.477 189.2 301.944 188C301.41 186.8 300.677 186.2 299.744 186.2C296.677 186.2 292.677 188.867 287.744 194.2C286.01 196.067 283.744 199 280.944 203C278.277 207 276.277 210.6 274.944 213.8C273.61 217.8 272.544 221.067 271.744 223.6C270.944 226.133 270.41 227.733 270.144 228.4C270.144 228.667 270.277 229.133 270.544 229.8C270.944 230.467 271.144 231 271.144 231.4C271.144 232.333 271.344 233.067 271.744 233.6C272.144 234.133 272.877 234.667 273.944 235.2C275.41 236.267 277.144 236.8 279.144 236.8C281.277 236.8 283.744 236.133 286.544 234.8C288.277 234 290.744 232.267 293.944 229.6L298.744 226C299.677 225.333 300.477 224.8 301.144 224.4C301.944 223.867 302.544 223.533 302.944 223.4C303.344 223.133 303.544 223.133 303.544 223.4C303.544 223.933 303.744 224.2 304.144 224.2C304.544 224.2 305.01 223.933 305.544 223.4C306.744 221.8 308.277 221 310.144 221C311.21 221 311.744 221.2 311.744 221.6L311.544 222.6C311.544 223.267 311.877 223.933 312.544 224.6C312.544 225.133 312.344 225.867 311.944 226.8C311.677 227.6 311.277 228.267 310.744 228.8C309.944 230 308.544 231.467 306.544 233.2C304.677 234.8 303.41 235.867 302.744 236.4H302.544C301.877 236.4 300.944 237 299.744 238.2C297.744 240.067 296.01 241 294.544 241C294.01 241.267 293.41 241.6 292.744 242C292.077 242.267 291.744 242.6 291.744 243C290.41 244.333 288.81 245.267 286.944 245.8C285.077 246.2 282.21 246.4 278.344 246.4ZM346.661 251.6C340.928 251.6 336.194 249.467 332.461 245.2C328.728 240.933 326.861 235.6 326.861 229.2C326.861 222.8 328.261 215.8 331.061 208.2C333.994 200.467 337.728 193.533 342.261 187.4C346.794 181.267 351.394 177.133 356.061 175C358.728 173.533 361.728 172.8 365.061 172.8C367.594 172.8 370.461 173.533 373.661 175C375.928 175.933 377.661 177.067 378.861 178.4C380.061 179.733 381.128 181.8 382.061 184.6C382.461 187 382.661 188.667 382.661 189.6C382.661 190.4 382.328 192.133 381.661 194.8C380.061 199.733 377.928 203.933 375.261 207.4C372.728 210.733 369.394 213.6 365.261 216C363.128 217.333 360.461 218 357.261 218C354.461 218 351.794 217.533 349.261 216.6C346.861 215.533 344.994 214 343.661 212L342.261 210.4L341.661 212C338.861 219.2 337.461 225.333 337.461 230.4C337.461 233.867 338.128 236.667 339.461 238.8C340.394 240.267 342.661 241 346.261 241C348.928 241 350.861 240.733 352.061 240.2C354.061 239.533 355.794 238.733 357.261 237.8C358.861 236.733 360.394 235.667 361.861 234.6L362.661 234.2H362.461C364.061 233.4 365.394 232.667 366.461 232C367.528 231.333 368.261 230.867 368.661 230.6C368.928 230.6 369.194 230.533 369.461 230.4C369.728 230.267 369.994 230 370.261 229.6C371.461 229.067 372.861 229.267 374.461 230.2C376.061 231.133 376.861 232.333 376.861 233.8C376.594 234.867 375.394 236.6 373.261 239C371.128 241.4 369.528 242.667 368.461 242.8C368.328 242.8 367.861 243 367.061 243.4C366.261 243.8 365.728 244.133 365.461 244.4H365.661C364.461 246 363.261 246.8 362.061 246.8H360.461C359.928 247.867 358.128 248.933 355.061 250C352.128 251.067 349.328 251.6 346.661 251.6ZM355.661 207.6C359.661 207.6 363.328 205.333 366.661 200.8C369.861 196.533 371.461 192.267 371.461 188C371.461 185.733 370.994 184.133 370.061 183.2C369.261 182.8 368.528 182.6 367.861 182.6C367.194 182.6 366.061 182.8 364.461 183.2C362.728 183.6 360.061 185.467 356.461 188.8C352.861 192 350.194 194.867 348.461 197.4L345.861 201.6C346.928 201.2 347.928 201 348.861 201C349.928 200.867 350.528 200.933 350.661 201.2C350.661 203.067 351.128 204.6 352.061 205.8C352.994 207 354.194 207.6 355.661 207.6Z" fill="#EE5256"/>
<path d="M29 332C69.6138 306.737 217.073 261.126 482 280.79" stroke="#EE5256" stroke-width="10"/>
</svg>
